<mxfile host="app.diagrams.net" modified="2024-02-04T13:02:29.745Z" agent="Mozilla/5.0 (Macintosh; Intel Mac OS X 10_15_7) AppleWebKit/605.1.15 (KHTML, like Gecko) Version/15.5 Safari/605.1.15" etag="xOoW_-zqqo0U6arE4v1Y" version="23.1.1" type="device">
  <diagram id="C5RBs43oDa-KdzZeNtuy" name="Page-1">
    <mxGraphModel dx="1622" dy="539" grid="1" gridSize="10" guides="1" tooltips="1" connect="1" arrows="1" fold="1" page="1" pageScale="1" pageWidth="827" pageHeight="1169" math="0" shadow="0">
      <root>
        <mxCell id="WIyWlLk6GJQsqaUBKTNV-0" />
        <mxCell id="WIyWlLk6GJQsqaUBKTNV-1" parent="WIyWlLk6GJQsqaUBKTNV-0" />
        <mxCell id="KfW2p2FMsXO448tqIPZe-2" style="edgeStyle=orthogonalEdgeStyle;rounded=0;orthogonalLoop=1;jettySize=auto;html=1;endArrow=block;endFill=0;" parent="WIyWlLk6GJQsqaUBKTNV-1" source="zkfFHV4jXpPFQw0GAbJ--0" target="KfW2p2FMsXO448tqIPZe-1" edge="1">
          <mxGeometry relative="1" as="geometry" />
        </mxCell>
        <mxCell id="zkfFHV4jXpPFQw0GAbJ--0" value="Affichage" style="swimlane;fontStyle=0;align=center;verticalAlign=top;childLayout=stackLayout;horizontal=1;startSize=26;horizontalStack=0;resizeParent=1;resizeLast=0;collapsible=1;marginBottom=0;rounded=0;shadow=0;strokeWidth=1;" parent="WIyWlLk6GJQsqaUBKTNV-1" vertex="1">
          <mxGeometry x="-20" y="200" width="430" height="230" as="geometry">
            <mxRectangle x="230" y="140" width="160" height="26" as="alternateBounds" />
          </mxGeometry>
        </mxCell>
        <mxCell id="zkfFHV4jXpPFQw0GAbJ--1" value="static int final Ratio = 8&#xa;static inf final LARGEUR_OVALE = 35&#xa;static int final LONGUEUR_OVALE = 100&#xa;static int final X = L/8&#xa;static int final Y = H/4&#xa;static int final H = (Position.HAUTEUR_MAX-Position.HAUTEUR_MIN)*RATIOÂ &#xa;static int final L = 600&#xa;static int final APRES = 50&#xa;static int final AVANT = 50" style="text;align=left;verticalAlign=top;spacingLeft=4;spacingRight=4;overflow=hidden;rotatable=0;points=[[0,0.5],[1,0.5]];portConstraint=eastwest;" parent="zkfFHV4jXpPFQw0GAbJ--0" vertex="1">
          <mxGeometry y="26" width="430" height="134" as="geometry" />
        </mxCell>
        <mxCell id="KfW2p2FMsXO448tqIPZe-7" value="" style="endArrow=none;html=1;rounded=0;exitX=0;exitY=0.5;exitDx=0;exitDy=0;entryX=0.328;entryY=0.065;entryDx=0;entryDy=0;entryPerimeter=0;" parent="zkfFHV4jXpPFQw0GAbJ--0" target="KfW2p2FMsXO448tqIPZe-20" edge="1">
          <mxGeometry width="50" height="50" relative="1" as="geometry">
            <mxPoint y="160" as="sourcePoint" />
            <mxPoint x="420" y="160" as="targetPoint" />
          </mxGeometry>
        </mxCell>
        <mxCell id="KfW2p2FMsXO448tqIPZe-10" value="Affichage (Position p, Parcours l, Score s) : Affichage" style="text;align=left;verticalAlign=top;spacingLeft=4;spacingRight=4;overflow=hidden;rotatable=0;points=[[0,0.5],[1,0.5]];portConstraint=eastwest;" parent="zkfFHV4jXpPFQw0GAbJ--0" vertex="1">
          <mxGeometry y="160" width="430" height="20" as="geometry" />
        </mxCell>
        <mxCell id="KfW2p2FMsXO448tqIPZe-11" value="paint (Graphics g) : void" style="text;align=left;verticalAlign=top;spacingLeft=4;spacingRight=4;overflow=hidden;rotatable=0;points=[[0,0.5],[1,0.5]];portConstraint=eastwest;" parent="zkfFHV4jXpPFQw0GAbJ--0" vertex="1">
          <mxGeometry y="180" width="430" height="20" as="geometry" />
        </mxCell>
        <mxCell id="KfW2p2FMsXO448tqIPZe-12" value="getPosition() : Position" style="text;align=left;verticalAlign=top;spacingLeft=4;spacingRight=4;overflow=hidden;rotatable=0;points=[[0,0.5],[1,0.5]];portConstraint=eastwest;" parent="zkfFHV4jXpPFQw0GAbJ--0" vertex="1">
          <mxGeometry y="200" width="430" height="20" as="geometry" />
        </mxCell>
        <mxCell id="KfW2p2FMsXO448tqIPZe-0" value="Position" style="rounded=0;whiteSpace=wrap;html=1;" parent="WIyWlLk6GJQsqaUBKTNV-1" vertex="1">
          <mxGeometry x="510" y="287.5" width="120" height="60" as="geometry" />
        </mxCell>
        <mxCell id="KfW2p2FMsXO448tqIPZe-1" value="JPanel" style="rounded=0;whiteSpace=wrap;html=1;" parent="WIyWlLk6GJQsqaUBKTNV-1" vertex="1">
          <mxGeometry x="135" y="100" width="120" height="60" as="geometry" />
        </mxCell>
        <mxCell id="KfW2p2FMsXO448tqIPZe-3" style="edgeStyle=orthogonalEdgeStyle;rounded=0;orthogonalLoop=1;jettySize=auto;html=1;entryX=0;entryY=0.5;entryDx=0;entryDy=0;exitX=0.998;exitY=0.682;exitDx=0;exitDy=0;exitPerimeter=0;" parent="WIyWlLk6GJQsqaUBKTNV-1" source="zkfFHV4jXpPFQw0GAbJ--1" target="KfW2p2FMsXO448tqIPZe-0" edge="1">
          <mxGeometry relative="1" as="geometry">
            <mxPoint x="420" y="330" as="sourcePoint" />
          </mxGeometry>
        </mxCell>
        <mxCell id="KfW2p2FMsXO448tqIPZe-4" value="position" style="text;html=1;strokeColor=none;fillColor=none;align=center;verticalAlign=middle;whiteSpace=wrap;rounded=0;" parent="WIyWlLk6GJQsqaUBKTNV-1" vertex="1">
          <mxGeometry x="430" y="282.5" width="60" height="30" as="geometry" />
        </mxCell>
        <mxCell id="KfW2p2FMsXO448tqIPZe-5" value="1" style="text;html=1;strokeColor=none;fillColor=none;align=center;verticalAlign=middle;whiteSpace=wrap;rounded=0;" parent="WIyWlLk6GJQsqaUBKTNV-1" vertex="1">
          <mxGeometry x="390" y="287.5" width="60" height="30" as="geometry" />
        </mxCell>
        <mxCell id="KfW2p2FMsXO448tqIPZe-13" value="Parcours" style="rounded=0;whiteSpace=wrap;html=1;" parent="WIyWlLk6GJQsqaUBKTNV-1" vertex="1">
          <mxGeometry x="510" y="217.5" width="120" height="60" as="geometry" />
        </mxCell>
        <mxCell id="KfW2p2FMsXO448tqIPZe-14" style="edgeStyle=orthogonalEdgeStyle;rounded=0;orthogonalLoop=1;jettySize=auto;html=1;exitX=1;exitY=0.5;exitDx=0;exitDy=0;entryX=0;entryY=0.5;entryDx=0;entryDy=0;" parent="WIyWlLk6GJQsqaUBKTNV-1" target="KfW2p2FMsXO448tqIPZe-13" edge="1">
          <mxGeometry relative="1" as="geometry">
            <mxPoint x="410" y="247.5" as="sourcePoint" />
          </mxGeometry>
        </mxCell>
        <mxCell id="KfW2p2FMsXO448tqIPZe-15" value="ligne" style="text;html=1;strokeColor=none;fillColor=none;align=center;verticalAlign=middle;whiteSpace=wrap;rounded=0;" parent="WIyWlLk6GJQsqaUBKTNV-1" vertex="1">
          <mxGeometry x="430" y="212.5" width="60" height="30" as="geometry" />
        </mxCell>
        <mxCell id="KfW2p2FMsXO448tqIPZe-16" value="1" style="text;html=1;strokeColor=none;fillColor=none;align=center;verticalAlign=middle;whiteSpace=wrap;rounded=0;" parent="WIyWlLk6GJQsqaUBKTNV-1" vertex="1">
          <mxGeometry x="390" y="217.5" width="60" height="30" as="geometry" />
        </mxCell>
        <mxCell id="KfW2p2FMsXO448tqIPZe-17" value="Score" style="rounded=0;whiteSpace=wrap;html=1;" parent="WIyWlLk6GJQsqaUBKTNV-1" vertex="1">
          <mxGeometry x="510" y="357.5" width="120" height="60" as="geometry" />
        </mxCell>
        <mxCell id="KfW2p2FMsXO448tqIPZe-18" style="edgeStyle=orthogonalEdgeStyle;rounded=0;orthogonalLoop=1;jettySize=auto;html=1;exitX=1;exitY=0.5;exitDx=0;exitDy=0;entryX=0;entryY=0.5;entryDx=0;entryDy=0;" parent="WIyWlLk6GJQsqaUBKTNV-1" target="KfW2p2FMsXO448tqIPZe-17" edge="1">
          <mxGeometry relative="1" as="geometry">
            <mxPoint x="410" y="387.5" as="sourcePoint" />
          </mxGeometry>
        </mxCell>
        <mxCell id="KfW2p2FMsXO448tqIPZe-19" value="score" style="text;html=1;strokeColor=none;fillColor=none;align=center;verticalAlign=middle;whiteSpace=wrap;rounded=0;" parent="WIyWlLk6GJQsqaUBKTNV-1" vertex="1">
          <mxGeometry x="430" y="352.5" width="60" height="30" as="geometry" />
        </mxCell>
        <mxCell id="KfW2p2FMsXO448tqIPZe-20" value="1" style="text;html=1;strokeColor=none;fillColor=none;align=center;verticalAlign=middle;whiteSpace=wrap;rounded=0;" parent="WIyWlLk6GJQsqaUBKTNV-1" vertex="1">
          <mxGeometry x="390" y="357.5" width="60" height="30" as="geometry" />
        </mxCell>
      </root>
    </mxGraphModel>
  </diagram>
</mxfile>
